/* XPM */
static char * select_xpm[] = {
"12 12 2 1",
" 	c None",
".	c #9E5949",
"            ",
"          . ",
"         .  ",
"        .   ",
"     . .    ",
"      .     ",
"            ",
"            ",
"            ",
"            ",
"            ",
"            "};
