/* XPM */
static char * close_pressed_xpm[] = {
"16 16 4 1",
" 	c None",
".	c #303030",
"+	c #EB9708",
"@	c #EB9605",
"................",
"................",
"................",
"................",
"................",
".....+...@......",
"......+.@.......",
".......+........",
"......+.+.......",
".....+...+......",
"................",
"................",
"................",
"................",
"................",
"................"};
