/* XPM */
static char * select_xpm[] = {
"12 12 7 1",
" 	c None",
".	c #EDA15F",
"+	c #EFA15D",
"@	c #F5A15C",
"#	c #F09C5C",
"$	c #F3A25C",
"%	c #F4A15C",
"            ",
"          . ",
"         +  ",
"        @   ",
"     # $    ",
"      %     ",
"            ",
"            ",
"            ",
"            ",
"            ",
"            "};
