#define close_width 8
#define close_height 8
static unsigned char close_bits[] = {
   0x10, 0x10, 0x10, 0x10, 0x10, 0x10, 0x00, 0x10 };
