#define max_width 8
#define max_height 8
static unsigned char max_bits[] = {
   0x24, 0x24, 0xff, 0x24, 0x24, 0xff, 0x24, 0x24 };
