#define close_width 7
#define close_height 7
static unsigned char close_bits[] = {
   0x00, 0x10, 0x0a, 0x14, 0x28, 0x04, 0x00 };
