#define close_width 7
#define close_height 7
static unsigned char close_bits[] = {
   0x21, 0x66, 0x12, 0x08, 0x24, 0x33, 0x42 };
