#define iconify_width 7
#define iconify_height 7
static unsigned char iconify_bits[] = {
   0x00, 0x20, 0x10, 0x08, 0x04, 0x02, 0x00 };
