#define max_width 7
#define max_height 7
static unsigned char max_bits[] = {
   0x40, 0x28, 0x10, 0x2a, 0x04, 0x0a, 0x01 };
