#define max_width 7
#define max_height 7
static unsigned char max_bits[] = {
   0x00, 0x28, 0x10, 0x2a, 0x00, 0x08, 0x00 };
