#define max_toggled_width 7
#define max_toggled_height 7
static unsigned char max_toggled_bits[] = {
   0x20, 0x60, 0x14, 0x08, 0x14, 0x03, 0x02 };
