#define shade_width 7
#define shade_height 7
static unsigned char shade_bits[] = {
   0x00, 0x1c, 0x14, 0x10, 0x08, 0x00, 0x08 };
