#define shade_width 7
#define shade_height 7
static unsigned char shade_bits[] = {
   0x20, 0x62, 0x14, 0x08, 0x14, 0x23, 0x02 };
