#define max_toggled_width 7
#define max_toggled_height 7
static unsigned char max_toggled_bits[] = {
   0x00, 0x20, 0x00, 0x08, 0x00, 0x02, 0x00 };
